<?xml version="1.0" encoding="UTF-8" standalone="no"?>
<!-- Created with Inkscape (http://www.inkscape.org/) -->

<svg
   xmlns:dc="http://purl.org/dc/elements/1.1/"
   xmlns:cc="http://creativecommons.org/ns#"
   xmlns:rdf="http://www.w3.org/1999/02/22-rdf-syntax-ns#"
   xmlns:svg="http://www.w3.org/2000/svg"
   xmlns="http://www.w3.org/2000/svg"
   xmlns:sodipodi="http://sodipodi.sourceforge.net/DTD/sodipodi-0.dtd"
   xmlns:inkscape="http://www.inkscape.org/namespaces/inkscape"
   width="210mm"
   height="297mm"
   viewBox="0 0 744.09448819 1052.3622047"
   id="svg2"
   version="1.1"
   inkscape:version="0.91 r13725"
   sodipodi:docname="aton-logo.svg">
  <defs
     id="defs4" />
  <sodipodi:namedview
     id="base"
     pagecolor="#ffffff"
     bordercolor="#666666"
     borderopacity="1.0"
     inkscape:pageopacity="0.0"
     inkscape:pageshadow="2"
     inkscape:zoom="0.24748737"
     inkscape:cx="116.51459"
     inkscape:cy="331.3669"
     inkscape:document-units="px"
     inkscape:current-layer="layer1"
     showgrid="false"
     inkscape:window-width="1331"
     inkscape:window-height="744"
     inkscape:window-x="35"
     inkscape:window-y="24"
     inkscape:window-maximized="1" />
  <metadata
     id="metadata7">
    <rdf:RDF>
      <cc:Work
         rdf:about="">
        <dc:format>image/svg+xml</dc:format>
        <dc:type
           rdf:resource="http://purl.org/dc/dcmitype/StillImage" />
        <dc:title></dc:title>
      </cc:Work>
    </rdf:RDF>
  </metadata>
  <g
     inkscape:label="Layer 1"
     inkscape:groupmode="layer"
     id="layer1">
    <g
       id="g4151"
       transform="matrix(0.61638243,0,0,0.64749789,277.43626,286.54269)"
       inkscape:export-xdpi="90"
       inkscape:export-ydpi="90">
      <rect
         y="720.50427"
         x="-359.61432"
         height="44.446712"
         width="1034.3962"
         id="rect4149"
         style="fill:#68efad;fill-opacity:1;stroke:none;stroke-width:10;stroke-miterlimit:4;stroke-dasharray:none;stroke-opacity:1" />
      <g
         id="text4136"
         style="font-style:normal;font-variant:normal;font-weight:normal;font-stretch:normal;font-size:621.6829834px;line-height:125%;font-family:Ubuntu;-inkscape-font-specification:Ubuntu;letter-spacing:0px;word-spacing:0px;fill:#000000;fill-opacity:1;stroke:none;stroke-width:1px;stroke-linecap:butt;stroke-linejoin:miter;stroke-opacity:1"
         transform="scale(0.90037203,1.110652)">
        <path
           style="fill:#681a99;fill-opacity:1"
           sodipodi:nodetypes="sccccscccscsscccsccscsscsscsssccscscccsccccs"
           inkscape:connector-curvature="0"
           id="path4141"
           d="m -309.93198,682.16175 c 13.67703,0 25.69623,-0.20723 36.05761,-0.62168 10.77584,-0.82891 19.68663,-2.07227 26.73237,-3.7301 l 0,-96.36086 c -4.14455,-2.07227 -10.98307,-3.73009 -20.51554,-4.97346 -9.11801,-1.65782 -20.30831,-2.48673 -33.57088,-2.48673 -8.70356,0 -18.0288,0.62168 -27.97573,1.86504 -9.53247,1.24337 -18.44326,3.93733 -26.73237,8.08188 -7.87465,3.7301 -14.50594,9.11802 -19.89386,16.16376 -5.38792,6.63129 -8.08188,15.54208 -8.08188,26.73237 0,20.72277 6.63129,35.2287 19.89386,43.51781 13.26257,7.87465 31.29137,11.81197 54.08642,11.81197 z m -4.97346,-289.70427 c 23.20949,0 42.68889,3.10842 58.4382,9.32525 16.16375,5.80237 29.01187,14.29871 38.54434,25.489 9.94693,10.77584 16.99267,23.83118 21.13722,39.16603 4.14455,14.92039 6.21683,31.49861 6.21683,49.73464 l 0,202.04697 c -4.97346,0.82891 -12.0192,2.07227 -21.13722,3.7301 -8.70356,1.24336 -18.65049,2.48672 -29.84078,3.73009 -11.19029,1.24337 -23.41673,2.27951 -36.6793,3.10842 -12.84811,1.24337 -25.69623,1.86505 -38.54434,1.86505 -18.23604,0 -35.02148,-1.86505 -50.35633,-5.59515 -15.33485,-3.7301 -28.59742,-9.53247 -39.78771,-17.40712 -11.19029,-8.28911 -19.89385,-19.06495 -26.11068,-32.32752 -6.21683,-13.26257 -9.32525,-29.2191 -9.32525,-47.86959 0,-17.82158 3.52287,-33.15643 10.56861,-46.00454 7.4602,-12.84811 17.40713,-23.2095 29.84079,-31.08415 12.43366,-7.87465 26.9396,-13.67702 43.51781,-17.40712 16.57821,-3.7301 33.98534,-5.59515 52.22137,-5.59515 5.80237,0 11.81197,0.41446 18.0288,1.24337 6.21683,0.41445 12.01921,1.24336 17.40713,2.48673 5.80237,0.82891 10.77584,1.65782 14.92039,2.48673 4.14455,0.82891 7.04574,1.4506 8.70356,1.86505 l 0,-16.16376 c 0,-9.53247 -1.03614,-18.85772 -3.10841,-27.97573 -2.07228,-9.53247 -5.80238,-17.82158 -11.1903,-24.86732 -5.38792,-7.46019 -12.84812,-13.26257 -22.38059,-17.40712 -9.11801,-4.55901 -21.13722,-6.83852 -36.05761,-6.83852 -19.06495,0 -35.85039,1.45059 -50.35632,4.35178 -14.09148,2.48673 -26.9313,13.15671 -33.97704,16.0579 l -4.56731,-55.84561 c 7.4602,-3.31564 19.89386,-6.42405 37.30098,-9.32524 17.40713,-3.31565 36.26485,-4.97347 56.57316,-4.97347 z" />
        <path
           style="fill:#909090;fill-opacity:1"
           sodipodi:nodetypes="ccccsccssccccscscsccc"
           inkscape:connector-curvature="0"
           id="path4143"
           d="m -41.063799,400.53936 -33.476437,-34.5615 169.41112,-26.99831 -135.934683,110.05109 0,149.20391 c 0,16.16376 1.243366,29.63356 3.730098,40.4094 2.486732,10.36138 6.21683,18.65048 11.190294,24.86731 4.973463,5.80238 11.190293,9.94693 18.6504892,12.43366 7.4601958,2.48673 16.1637574,3.7301 26.1106848,3.7301 17.407124,0 31.291377,-1.86505 41.65276,-5.59514 10.775839,-4.14455 60.282143,-36.62939 64.426703,-38.28722 L 93.841408,713.2459 c -5.802374,2.90119 -15.956529,6.42406 -30.462466,10.56861 -14.505936,4.55901 -31.084149,6.83852 -49.734638,6.83852 -21.9661327,0 -40.202167,-2.69396 -54.708103,-8.08188 -14.091481,-5.80237 -25.489002,-14.29871 -34.192564,-25.489 -8.703562,-11.19029 -14.920392,-24.86732 -18.65049,-41.03108 -3.315642,-16.57821 -4.973463,-35.64316 -4.973463,-57.19484 l 0,-288.4609 55.572661,-94.53165 z" />
        <path
           id="path4145"
           style="fill:#909090;fill-opacity:1"
           d="m 431.83298,562.17694 q 0,38.54434 -11.1903,69.62849 -11.19029,31.08415 -31.70583,53.46474 -19.89385,22.38059 -47.86959,34.81425 -27.97573,11.81197 -60.92493,11.81197 -32.9492,0 -60.92493,-11.81197 -27.97574,-12.43366 -48.49128,-34.81425 -19.89385,-22.38059 -31.08414,-53.46474 -11.1903,-31.08415 -11.1903,-69.62849 0,-37.92266 11.1903,-69.00681 11.19029,-31.70583 31.08414,-54.08642 20.51554,-22.38059 48.49128,-34.19257 27.97573,-12.43366 60.92493,-12.43366 32.9492,0 60.92493,12.43366 27.97574,11.81198 47.86959,34.19257 20.51554,22.38059 31.70583,54.08642 11.1903,31.08415 11.1903,69.00681 z m -60.30325,0 q 0,-54.7081 -24.86732,-86.41394 -24.24564,-32.32751 -66.52008,-32.32751 -42.27444,0 -67.14176,32.32751 -24.24564,31.70584 -24.24564,86.41394 0,54.7081 24.24564,87.03562 24.86732,31.70583 67.14176,31.70583 42.27444,0 66.52008,-31.70583 24.86732,-32.32752 24.86732,-87.03562 z"
           inkscape:connector-curvature="0" />
        <path
           id="path4147"
           style="fill:#909090;fill-opacity:1"
           d="m 513.17629,409.86461 q 19.89385,-4.97347 52.84305,-10.56861 32.9492,-5.59515 75.84533,-5.59515 38.54434,0 64.03334,11.19029 25.48901,10.56861 40.4094,30.46247 15.54207,19.27217 21.7589,46.62622 6.21683,27.35405 6.21683,60.30325 l 0,181.53143 -57.81652,0 0,-169.09777 q 0,-29.84078 -4.35178,-50.978 -3.73009,-21.13722 -13.05534,-34.19257 -9.32524,-13.05534 -24.86732,-18.65049 -15.54207,-6.21683 -38.54434,-6.21683 -9.32525,0 -19.27218,0.62169 -9.94692,0.62168 -19.27217,1.86505 -8.70356,0.62168 -16.16376,1.86505 -6.83851,1.24336 -9.94692,1.86504 l 0,272.91883 -57.81652,0 0,-313.9499 z"
           inkscape:connector-curvature="0" />
      </g>
    </g>
  </g>
</svg>
